<svg version="1.1" id="Icons" xmlns="http://www.w3.org/2000/svg" x="0" y="0" viewBox="127 99.167 865.434 595.833" xml:space="preserve"><path d="M724.883 311.1c-5.9 0-10.1 1.7-12.7 5.2-2.7 3.5-3.6 7.8-3.6 14.2 0 6.1 1 10.7 3.5 14.1 2.6 3.4 6.7 5.2 12.8 5.2 6.3 0 10.3-1.8 13-5.2 2.5-3.4 3.599-8 3.6-14.2 0-5.9-1.1-10.6-3.6-14-2.7-3.5-6.599-5.3-13-5.3zm1.599 27.7c-.6 1-1 1.7-1.6 1.7-.4 0-1.1-.7-1.6-1.7-.6-1.6-.9-4.6-.9-8.4 0-4 .3-7 .9-8.5.5-1.1 1-1.6 1.6-1.6.7 0 1.2.5 1.6 1.6.801 1.5 1 4.3 1 8.4.1 4.1-.4 7-1 8.5zM324.083 255.4c5.5-5.3 10.7-7.2 17.1-7.2 5 0 10.7 2.2 15.7 5.2 5 2.8 10.5 7.6 13.8 10.3h14.8v-35c-.9-.5-3.1-.9-3.1-1-.7-.2-1.1-.6-1.3-.7v.2c-2.8-1.4-5.5-2.4-8.4-3.6-2.8-1.2-6.4-2.2-10-3.4-7.6-1.9-16-3.1-26.9-3.1-21.4 0-38.1 6-50 18.1h.2c-12.2 11.7-18.4 27.3-18.4 46.7 0 20.2 5.9 35.8 18.3 47.6 12.1 11.5 28.8 17.2 50 17.2 7.1 0 11.9-.2 15.2-.9 4-.7 8.4-1.6 11.9-2.8 5.5-1.6 12.1-4 16.2-5.9.2-.2.7-.3 1.2-.5l3.8-1.7 1.2-.7v-34.3h-13.8l-4.8 3.3c-2.8 2.2-6.5 5.5-9.5 7.1-4.1 2.6-10.2 5.2-16.2 5.2-5.5 0-11.5-1.9-16.9-6.7-5.3-4.8-9.1-13.4-9.1-26.7 0-12.6 3.601-21.7 9-26.7zM760.383 311.1c-5.9 0-10.1 1.7-12.7 5.2-2.7 3.5-3.6 7.8-3.6 14.2 0 6.1 1 10.7 3.5 14.1 2.6 3.4 6.7 5.2 12.8 5.2 6.3 0 10.3-1.8 13-5.2 2.5-3.4 3.599-8 3.6-14.2 0-5.9-1.1-10.6-3.6-14-2.599-3.5-6.599-5.3-13-5.3zm1.699 27.7c-.6 1-1 1.7-1.6 1.7-.4 0-1.1-.7-1.6-1.7-.6-1.6-.9-4.6-.9-8.4 0-4 .3-7 .9-8.5.5-1.1 1-1.6 1.6-1.6.7 0 1.2.5 1.6 1.6.8 1.5 1 4.3 1 8.4 0 4.1-.4 7-1 8.5zM690.784 337.1h13.3V349h-13.3zM486.284 222.3h-42.7l-54.7 69.1v26.7h52.9v26.7h44.5v-26.7h16.2v-29.6h-16.2v-66.2zm-43.701 66.2h-11.7c3.6-4.1 7.4-10.9 11.7-15.2v15.2zM690.784 320.2h13.3v11.9h-13.3zM669.083 311.1c-5.9 0-10.1 1.7-12.7 5.2-2.7 3.5-3.6 7.8-3.6 14.2 0 6.1 1 10.7 3.5 14.1 2.6 3.4 6.7 5.2 12.8 5.2 6.3 0 10.3-1.8 13-5.2 2.5-3.4 3.599-8 3.6-14.2 0-5.9-1.1-10.6-3.6-14-2.7-3.5-6.599-5.3-13-5.3zm1.599 27.7c-.6 1-1 1.7-1.6 1.7-.4 0-1.1-.7-1.6-1.7-.6-1.6-.9-4.6-.9-8.4 0-4 .3-7 .9-8.5.5-1.1 1-1.6 1.6-1.6.7 0 1.2.5 1.6 1.6.8 1.5 1 4.3 1 8.4.1 4.1-.299 7-1 8.5z" fill="none"/><path d="M945.782 209.1c0-32.9-26.8-59.6-59.6-59.6H233.484c-32.8 0-59.6 26.8-59.6 59.6v152c0 13.6 4.6 26.2 12.3 36.3-7.7 10.1-12.3 22.7-12.3 36.3v152.038c.019 29.945 22.242 54.737 50.974 58.929h669.855c28.813-4.2 50.97-29.09 50.97-58.967v-152c0-13.6-4.6-26.2-12.3-36.3 7.7-10.1 12.3-22.6 12.3-36.3v-152h.099v435.567h.001V149.5h-.001v59.6zm-253.8-12.8h45.6v68.9h-45.6v-68.9zm8.9 236.2h27.9c1.6 0 2.9 1.3 2.9 2.9v27.9c0 1.6-1.3 2.9-3 2.9h-27.8c-1.6 0-2.9-1.3-2.9-2.9v-27.9c0-1.6 1.3-2.9 2.9-2.9zm-2.9-14.8v-27.9c0-1.6 1.3-2.9 2.9-2.9h27.9c1.6 0 2.9 1.3 2.9 2.9v27.9c0 1.6-1.3 2.9-3 2.9h-27.8c-1.6 0-2.9-1.3-2.9-2.9zm.001 63.4c0-1.6 1.3-2.9 2.9-2.9h27.9c1.6-.1 2.9 1.2 2.9 2.9V509c0 1.6-1.3 2.9-2.9 2.9h-27.9c-1.6 0-2.9-1.3-2.9-2.9v-27.9zm-82.6-116.3V298h198.8v66.8h-198.8zm16.9 233.8h-398.8c-7 0-12.9-5.9-12.9-12.9v-152c0-7 5.9-12.9 12.9-12.9h351.4V374h-351.4c-7 0-12.9-5.9-12.9-12.9v-152c0-7 5.9-12.9 12.9-12.9h398.8v68.9h-14.6c-11.6 0-21.1 9.5-21.1 21.1v222.4c0 11.6 9.5 21.1 21.1 21.1h14.6v68.9zm53.8-89.7c0 1.6-1.3 2.9-2.9 2.9h-27.9c-1.6 0-2.9-1.3-2.9-2.9V481c0-1.6 1.3-2.9 2.9-2.9h27.9a2.9 2.9 0 0 1 2.9 2.9v27.9zm0-45.6c0 1.6-1.3 2.9-2.9 2.9h-27.9c-1.6 0-2.9-1.3-2.9-2.9v-27.9c0-1.6 1.3-2.9 2.9-2.9h27.9a2.9 2.9 0 0 1 2.9 2.9v27.9zm0-45.6c0 1.6-1.3 2.9-2.9 2.9h-27.9c-1.6 0-2.9-1.3-2.9-2.9v-27.9c0-1.6 1.3-2.9 2.9-2.9h27.9a2.9 2.9 0 0 1 2.9 2.9v27.9zm51.499 180.9h-45.6v-68.9h45.6v68.9zm39.702-89.7c0 1.6-1.3 2.9-2.9 2.9h-27.9c-1.6 0-2.9-1.3-2.9-2.9V481c0-1.6 1.3-2.9 2.9-2.9h27.9c1.599 0 2.9 1.3 2.9 2.9v27.9zm0-45.6c0 1.6-1.3 2.9-2.9 2.9h-27.9c-1.6 0-2.9-1.3-2.9-2.9v-27.9c0-1.6 1.3-2.9 2.9-2.9h27.9c1.599 0 2.9 1.3 2.9 2.9v27.9zm0-45.6c0 1.6-1.3 2.9-2.9 2.9h-27.9c-1.6 0-2.9-1.3-2.9-2.9v-27.9c0-1.6 1.3-2.9 2.9-2.9h27.9c1.599 0 2.9 1.3 2.9 2.9v27.9zm121.798-56.5h-.1c0 7-5.9 12.9-12.9 12.9h-41.5v46.8h41.5c7 0 12.9 5.9 12.9 12.9v152c0 7-5.9 12.9-12.9 12.9h-88.9v-68.9h14.7c11.6 0 21.1-9.5 21.1-21.1V286.2c0-11.6-9.5-21.1-21.1-21.1h-14.6v-68.8h88.9c7 0 12.901 5.9 12.9 12.9v152z" fill="none"/><path d="M728.682 420.6c1.7 0 3-1.3 3-2.9v-27.9c0-1.6-1.3-2.9-2.9-2.9h-27.9c-1.6 0-2.9 1.3-2.9 2.9v27.9c0 1.6 1.3 2.9 2.9 2.9h27.8zM670.682 321.9c-.4-1.1-.9-1.6-1.6-1.6-.6 0-1.1.5-1.6 1.6-.6 1.5-.9 4.5-.9 8.5 0 3.8.3 6.8.9 8.4.5 1 1.2 1.7 1.6 1.7.6 0 1-.7 1.6-1.7.7-1.5 1.1-4.4 1-8.5 0-4.1-.2-6.9-1-8.4zM442.583 288.5v-15.2c-4.3 4.3-8.1 11.1-11.7 15.2h11.7z" fill="#e7edf1"/><path d="M814.182 298h-198.8v66.8h198.8V298zm-132.099 46.6c-2.7 3.4-6.7 5.2-13 5.2-6.1 0-10.2-1.8-12.8-5.2-2.5-3.4-3.5-8-3.5-14.1 0-6.4.9-10.7 3.6-14.2 2.6-3.5 6.8-5.2 12.7-5.2 6.4 0 10.3 1.8 13 5.3 2.5 3.4 3.6 8.1 3.6 14-.001 6.2-1.1 10.8-3.6 14.2zm22 4.4h-13.3v-11.9h13.3V349zm0-16.9h-13.3v-11.9h13.3v11.9zm33.8 12.5c-2.7 3.4-6.7 5.2-13 5.2-6.1 0-10.2-1.8-12.8-5.2-2.5-3.4-3.5-8-3.5-14.1 0-6.4.9-10.7 3.6-14.2 2.6-3.5 6.8-5.2 12.7-5.2 6.4 0 10.3 1.8 13 5.3 2.5 3.4 3.6 8.1 3.6 14-.001 6.2-1.1 10.8-3.6 14.2zm35.5 0c-2.7 3.4-6.7 5.2-13 5.2-6.1 0-10.2-1.8-12.8-5.2-2.5-3.4-3.5-8-3.5-14.1 0-6.4.9-10.7 3.6-14.2 2.6-3.5 6.8-5.2 12.7-5.2 6.4 0 10.4 1.8 13 5.3 2.5 3.4 3.6 8.1 3.6 14-.001 6.2-1.1 10.8-3.6 14.2z" fill="#e7edf1"/><path d="M726.482 321.9c-.4-1.1-.9-1.6-1.6-1.6-.6 0-1.1.5-1.6 1.6-.6 1.5-.9 4.5-.9 8.5 0 3.8.3 6.8.9 8.4.5 1 1.2 1.7 1.6 1.7.6 0 1-.7 1.6-1.7.6-1.5 1.1-4.4 1-8.5 0-4.1-.198-6.9-1-8.4zM760.482 320.3c-.6 0-1.1.5-1.6 1.6-.6 1.5-.9 4.5-.9 8.5 0 3.8.3 6.8.9 8.4.5 1 1.2 1.7 1.6 1.7.6 0 1-.7 1.6-1.7.6-1.5 1-4.4 1-8.5s-.2-6.9-1-8.4c-.4-1.1-.9-1.6-1.6-1.6zM691.982 196.3h45.6v68.9h-45.6zM774.383 478.1h-27.9c-1.6 0-2.9 1.3-2.9 2.9v27.9c0 1.6 1.3 2.9 2.9 2.9h27.9c1.6 0 2.9-1.3 2.9-2.9V481a2.902 2.902 0 0 0-2.9-2.9zM683.182 386.9h-27.9c-1.6 0-2.9 1.3-2.9 2.9v27.9c0 1.6 1.3 2.9 2.9 2.9h27.9c1.6 0 2.9-1.3 2.9-2.9v-27.9a2.9 2.9 0 0 0-2.9-2.9zM691.982 529.7h45.6v68.9h-45.6zM697.982 463.3c0 1.6 1.3 2.9 2.9 2.9h27.8c1.7 0 3-1.3 3-2.9v-27.9c0-1.6-1.3-2.9-2.9-2.9h-27.9c-1.6 0-2.9 1.3-2.9 2.9v27.9zM774.383 432.5h-27.9c-1.6 0-2.9 1.3-2.9 2.9v27.9c0 1.6 1.3 2.9 2.9 2.9h27.9c1.6 0 2.9-1.3 2.9-2.9v-27.9a2.902 2.902 0 0 0-2.9-2.9zM886.182 196.3h-88.9v68.8h14.6c11.6 0 21.1 9.5 21.1 21.1v222.5c0 11.6-9.5 21.1-21.1 21.1h-14.7v68.9h88.9c7 0 12.9-5.9 12.9-12.9v-152c0-7-5.9-12.9-12.9-12.9h-41.5v-46.8h41.5c7 0 12.9-5.9 12.9-12.9h.1v-152c.001-7-5.9-12.9-12.9-12.9zM774.383 386.9h-27.9c-1.6 0-2.9 1.3-2.9 2.9v27.9c0 1.6 1.3 2.9 2.9 2.9h27.9c1.6 0 2.9-1.3 2.9-2.9v-27.9a2.902 2.902 0 0 0-2.9-2.9zM700.883 511.9h27.9c1.6 0 2.9-1.3 2.9-2.9v-27.9c0-1.7-1.3-3-2.9-2.9h-27.9c-1.6 0-2.9 1.3-2.9 2.9V509c0 1.6 1.3 2.9 2.9 2.9zM683.182 432.5h-27.9c-1.6 0-2.9 1.3-2.9 2.9v27.9c0 1.6 1.3 2.9 2.9 2.9h27.9c1.6 0 2.9-1.3 2.9-2.9v-27.9a2.9 2.9 0 0 0-2.9-2.9zM683.182 478.1h-27.9c-1.6 0-2.9 1.3-2.9 2.9v27.9c0 1.6 1.3 2.9 2.9 2.9h27.9c1.6 0 2.9-1.3 2.9-2.9V481a2.9 2.9 0 0 0-2.9-2.9zM596.583 508.6V286.2c0-11.6 9.5-21.1 21.1-21.1h14.6v-68.9h-398.8c-7 0-12.9 5.9-12.9 12.9v152c0 7 5.9 12.9 12.9 12.9h351.4v46.8h-351.4c-7 0-12.9 5.9-12.9 12.9v152c0 7 5.9 12.9 12.9 12.9h398.8v-68.9h-14.6c-11.6 0-21.1-9.5-21.1-21.1zM324.184 308.8c5.4 4.8 11.4 6.7 16.9 6.7 6 0 12.1-2.6 16.2-5.2 3-1.6 6.7-4.9 9.5-7.1l4.8-3.3h13.8v34.3l-1.2.7-3.8 1.7c-.5.2-1 .3-1.2.5-4.1 1.9-10.7 4.3-16.2 5.9-3.5 1.2-7.9 2.1-11.9 2.8-3.3.7-8.1.9-15.2.9-21.2 0-37.9-5.7-50-17.2-12.4-11.8-18.3-27.4-18.3-47.6 0-19.4 6.2-35 18.4-46.7h-.2c11.9-12.1 28.6-18.1 50-18.1 10.9 0 19.3 1.2 26.9 3.1 3.6 1.2 7.2 2.2 10 3.4 2.9 1.2 5.6 2.2 8.4 3.6v-.2c.2.1.6.5 1.3.7 0 .1 2.2.5 3.1 1v35h-14.8c-3.3-2.7-8.8-7.5-13.8-10.3-5-3-10.7-5.2-15.7-5.2-6.4 0-11.6 1.9-17.1 7.2-5.4 5-9 14.1-9 26.7-.001 13.3 3.8 21.9 9.1 26.7zm178.3 9.3h-16.2v26.7h-44.5v-26.7h-52.9v-26.7l54.7-69.1h42.7v66.2h16.2v29.6z" fill="#e7edf1"/><path d="M126.884 99.167V149.5h.233V695H992.55v-25.167h.001V99.167H126.884zM945.783 209.1h-.1v152c0 13.7-4.6 26.2-12.3 36.3 7.7 10.1 12.3 22.7 12.3 36.3v152c0 29.877-22.157 54.767-50.97 58.967H224.858c-28.732-4.192-50.955-28.984-50.974-58.929V433.7c0-13.6 4.6-26.2 12.3-36.3-7.7-10.1-12.3-22.7-12.3-36.3v-152c0-32.8 26.8-59.6 59.6-59.6h652.699c32.799 0 59.599 26.7 59.6 59.6z" fill="#e7edf1"/></svg>